<svg xmlns="http://www.w3.org/2000/svg" width="250px" height="180px" viewbox="0 0 250 180" vector-effect="non-scaling-stroke"><path fill="none" stroke="#000000" stroke-width="0.4" stroke-linejoin="round" stroke-linecap="round" stroke-dasharray="none" d="M 0,40 L 10,30 L 70,30 L 80,40 L 90,30 L 110,30 L 120,40 L 120,0 L 200,0 L 200,40 L 240,40 L 250,50 L 250,130 L 240,140 L 200,140 L 200,180 L 120,180 L 120,140 L 110,150 L 90,150 L 80,140 L 70,150 L 10,150 L 0,140 L 0,100 A 10 10 0 1 0 0,80 L 0,40 M 0,40 "/><path fill="none" stroke="#ff0000" stroke-width="0.4" stroke-linejoin="round" stroke-linecap="round" stroke-dasharray="3 1" d="M 0,40 L 200,40 M 0,140 L 200,140 M 80,40 L 80,140 M 120,40 L 120,140 M 200,40 L 200,140 M 240,40 L 240,140 "/></svg>