<svg xmlns="http://www.w3.org/2000/svg" width="70mm" height="50mm" viewBox="-35 -50 70 50" vector-effect="non-scaling-stroke"><path fill="none" stroke="red" stroke-width="1" stroke-linejoin="round" stroke-linecap="round" stroke-dasharray="none" d="M 0,0 M -15,0 L -15,-10 A 10 10 -90 1 0 -35,-10 "/><path fill="none" stroke="green" stroke-width="1" stroke-linejoin="round" stroke-linecap="round" stroke-dasharray="none" d="M -35,-10 M -10,0 L -10,-20 A 10 10 -90 0 0 -25,-28.66 "/><path fill="none" stroke="blue" stroke-width="1" stroke-linejoin="round" stroke-linecap="round" stroke-dasharray="none" d="M -25,-28.66 M -5,0 L -5,-30 A 10 10 -90 0 0 -10,-38.66 "/><path fill="none" stroke="black" stroke-width="1" stroke-linejoin="round" stroke-linecap="round" stroke-dasharray="none" d="M -10,-38.66 M 0,0 L 0,-50 "/><path fill="none" stroke="yellow" stroke-width="1" stroke-linejoin="round" stroke-linecap="round" stroke-dasharray="none" d="M 0,-50 M 5,0 L 5,-30 A 10 10 -90 0 1 10,-38.66 "/><path fill="none" stroke="magenta" stroke-width="1" stroke-linejoin="round" stroke-linecap="round" stroke-dasharray="none" d="M 10,-38.66 M 10,0 L 10,-20 A 10 10 -90 0 1 25,-28.66 "/><path fill="none" stroke="cyan" stroke-width="1" stroke-linejoin="round" stroke-linecap="round" stroke-dasharray="none" d="M 25,-28.66 M 15,0 L 15,-10 A 10 10 -90 1 1 35,-10 "/></svg>