<svg xmlns="http://www.w3.org/2000/svg" width="50px" height="70px" viewBox="0 -35 50 70" vector-effect="non-scaling-stroke"><path fill="none" stroke="red" stroke-width="1" stroke-linejoin="round" stroke-linecap="round" stroke-dasharray="none" d="M 0,-15 L 10,-15 A 10 10 0 1 0 10,-35 "/><path fill="none" stroke="green" stroke-width="1" stroke-linejoin="round" stroke-linecap="round" stroke-dasharray="none" d="M 10,-35 M 0,-10 L 20,-10 A 10 10 0 0 0 28.66,-25 "/><path fill="none" stroke="blue" stroke-width="1" stroke-linejoin="round" stroke-linecap="round" stroke-dasharray="none" d="M 28.66,-25 M 0,-5 L 30,-5 A 10 10 0 0 0 38.66,-10 "/><path fill="none" stroke="black" stroke-width="1" stroke-linejoin="round" stroke-linecap="round" stroke-dasharray="none" d="M 38.66,-10 M 0,0 L 50,0 "/><path fill="none" stroke="yellow" stroke-width="1" stroke-linejoin="round" stroke-linecap="round" stroke-dasharray="none" d="M 50,0 M 0,5 L 30,5 A 10 10 0 0 1 38.66,10 "/><path fill="none" stroke="magenta" stroke-width="1" stroke-linejoin="round" stroke-linecap="round" stroke-dasharray="none" d="M 38.66,10 M 0,10 L 20,10 A 10 10 0 0 1 28.66,25 "/><path fill="none" stroke="cyan" stroke-width="1" stroke-linejoin="round" stroke-linecap="round" stroke-dasharray="none" d="M 28.66,25 M 0,15 L 10,15 A 10 10 0 1 1 10,35 "/></svg>